<svg id="Layer_1" enable-background="new 0 0 511.984 511.984" height="512" viewBox="0 0 511.984 511.984" width="512" xmlns="http://www.w3.org/2000/svg"><path d="m324.887 149.592h-137.789l-91.577 78.494v117.702h320.943v-117.702z" fill="#dad0cb"/><path d="m416.464 228.086-91.577-78.494h-68.895v196.196h160.472z" fill="#d0c8c3"/><path d="m95.521 315.788h320.943v196.196h-320.943z" fill="#ff6b6b"/><path d="m255.992 315.788h160.472v196.196h-160.472z" fill="#ff3d7d"/><path d="m205.795.21h100.394v118.989h-100.394z" fill="#eceae7"/><path d="m255.992.21h50.197v118.989h-50.197z" fill="#dad0cb"/><path d="m240.992 144.591h30v143.319h-30z" fill="#bcfbff"/><path d="m255.992 144.591h15v143.319h-15z" fill="#00e4ef"/><path d="m177.646 89.199h156.691v68.504h-156.691z" fill="#f4f1f1"/><g fill="#ff6b6b"><path d="m386.463 0h30v30.002h-30z"/><path d="m386.463 60.004h30v30.002h-30z"/><path d="m336.46 30.002h30v30.002h-30z"/></g><path d="m159.992 272.91h192v115.757h-192z" fill="#fff"/><path d="m386.463 0h30v30.002h-30z" fill="#ff3d7d"/><path d="m386.463 60.004h30v30.002h-30z" fill="#ff3d7d"/><path d="m336.46 30.002h30v30.002h-30z" fill="#ff3d7d"/><path d="m255.992 89.199h78.346v68.504h-78.346z" fill="#eceae7"/><path d="m255.992 272.91h96v115.757h-96z" fill="#eceae7"/></svg>