<svg id="Layer_1" enable-background="new 0 0 511.998 511.998" height="512" viewBox="0 0 511.998 511.998" width="512" xmlns="http://www.w3.org/2000/svg"><path d="m427.375 52.752c-17.847-17.846-41.574-27.674-66.813-27.674h-15v15c0 17.187-13.982 31.169-31.169 31.169h-181.497c-41.878 0-75.948 34.07-75.948 75.948v15h398.102v-42.63c0-25.239-9.828-48.966-27.675-66.813z" fill="#f4f1f1"/><path d="m455.05 119.565c0-25.239-9.828-48.966-27.675-66.813-17.847-17.846-41.574-27.674-66.813-27.674h-15v15c0 17.187-13.982 31.169-31.169 31.169h-58.394v90.948h199.051z" fill="#eceae7"/><path d="m26.779 132.195h458.439v100.337h-458.439z" fill="#ffe06a"/><path d="m255.999 132.195h229.219v100.337h-229.219z" fill="#fed330"/><path d="m0 202.532v206.594l46.677 77.794h418.645l46.676-77.794v-206.594z" fill="#ff9500"/><path d="m255.999 202.532v284.388h209.323l46.676-77.794v-206.594z" fill="#ff641a"/><ellipse cx="255.999" cy="344.726" fill="#ffe06a" rx="82.111" ry="82.111" transform="matrix(.707 -.707 .707 .707 -168.778 281.987)"/><path d="m338.11 344.726c0-45.276-36.835-82.111-82.111-82.111v164.222c45.277 0 82.111-36.835 82.111-82.111z" fill="#fed330"/></svg>