<svg id="Capa_1" enable-background="new 0 0 510 510" height="512" viewBox="0 0 510 510" width="512" xmlns="http://www.w3.org/2000/svg"><path d="m448.817 22.107v91.63h-103.127v-91.63c0-11.794 9.567-21.357 21.378-21.357h60.371c11.8 0 21.378 9.563 21.378 21.357z" fill="#676e74"/><path d="m448.817 22.107v91.63h-51.563v-112.987h30.186c11.799 0 21.377 9.563 21.377 21.357z" fill="#292929"/><path d="m510 239.737-38.5 67.743 38.5 67.753v122.657c0 6.27-5.09 11.36-11.37 11.36h-202.75c-6.29 0-11.37-5.09-11.37-11.36v-122.657l51.99-67.753-51.99-67.743v-87.837c0-21.9 17.77-39.66 39.71-39.66h146.06c21.93 0 39.72 17.76 39.72 39.66z" fill="#00d7df"/><path d="m510 239.737-38.5 67.743 38.5 67.753v122.657c0 6.27-5.09 11.36-11.37 11.36h-101.38v-397.01h73.03c21.93 0 39.72 17.76 39.72 39.66z" fill="#00aadf"/><path d="m510 239.74v135.49h-225.49v-67.747-67.743z" fill="#676e74"/><path d="m397.25 239.74h112.75v135.49h-112.75z" fill="#292929"/><path d="m435.618 307.483c0 8.425-6.829 15.244-15.267 15.244h-46.197c-8.427 0-15.267-6.819-15.267-15.244 0-8.415 6.839-15.244 15.267-15.244h46.197c8.438 0 15.267 6.829 15.267 15.244z" fill="#f4f1f4"/><path d="m435.618 307.483c0 8.425-6.829 15.244-15.267 15.244h-23.093v-30.489h23.093c8.438.001 15.267 6.83 15.267 15.245z" fill="#d8d2d7"/><path d="m226.784 107.648v58.571l-113.397 30.059-113.387-30.059v-58.571c0-6.014 4.888-10.895 10.911-10.895h204.962c6.023 0 10.911 4.881 10.911 10.895z" fill="#676e74"/><path d="m226.784 107.648v58.571l-113.397 30.059v-99.525h102.486c6.023 0 10.911 4.881 10.911 10.895z" fill="#292929"/><path d="m197.39 429.732v55.306c0 13.368-10.856 24.209-24.255 24.209h-119.486c-13.399 0-24.255-10.841-24.255-24.209v-55.306l83.992-12.148z" fill="#676e74"/><path d="m197.39 429.732v55.306c0 13.368-10.856 24.209-24.255 24.209h-59.748v-91.662z" fill="#292929"/><path d="m218.75 236.58-37.25 58.36 22.41 71.64-6.52 63.16h-168l-6.52-63.16 20.13-71.64-34.97-58.36-8.03-70.36h226.78z" fill="#00d7df"/><path d="m218.75 236.58-37.25 58.36 22.41 71.64-6.52 63.16h-84v-263.52h113.39z" fill="#00aadf"/><path d="m218.75 236.58-14.84 130h-181.04l-14.84-130z" fill="#676e74"/><path d="m218.75 236.58-14.84 130h-90.52v-130z" fill="#292929"/><path d="m147.147 301.58c0 8.415-6.84 15.244-15.267 15.244h-36.976c-8.427 0-15.267-6.83-15.267-15.244 0-8.425 6.839-15.244 15.267-15.244h36.976c8.427 0 15.267 6.819 15.267 15.244z" fill="#f4f1f4"/><path d="m147.147 301.58c0 8.415-6.84 15.244-15.267 15.244h-18.493v-30.489h18.493c8.427.001 15.267 6.82 15.267 15.245z" fill="#d8d2d7"/></svg>